<?xml version="1.0" encoding="UTF-8" standalone="no"?>
<!-- Created with Inkscape (http://www.inkscape.org/) -->

<svg
   version="1.1"
   id="svg182"
   width="500"
   height="177"
   viewBox="0 0 499.99998 177"
   xmlns="http://www.w3.org/2000/svg"
   xmlns:svg="http://www.w3.org/2000/svg">
  <defs
     id="defs186">
    <linearGradient
       x1="0"
       y1="0"
       x2="1"
       y2="0"
       gradientUnits="userSpaceOnUse"
       gradientTransform="matrix(0.1792128,-12.41153,-12.387736,0.1792128,322.33331,689.65878)"
       spreadMethod="pad"
       id="linearGradient876">
      <stop
         style="stop-opacity:1;stop-color:#fcd211"
         offset="0"
         id="stop870" />
      <stop
         style="stop-opacity:1;stop-color:#fcd211"
         offset="0.21582158"
         id="stop872" />
      <stop
         style="stop-opacity:1;stop-color:#f1511b"
         offset="1"
         id="stop874" />
    </linearGradient>
    <linearGradient
       x1="0"
       y1="0"
       x2="1"
       y2="0"
       gradientUnits="userSpaceOnUse"
       gradientTransform="matrix(45.346312,0,0,-45.346312,288.50559,677.91516)"
       spreadMethod="pad"
       id="linearGradient904">
      <stop
         style="stop-opacity:1;stop-color:#67bd30"
         offset="0"
         id="stop892" />
      <stop
         style="stop-opacity:1;stop-color:#67bd30"
         offset="0.30206431"
         id="stop894" />
      <stop
         style="stop-opacity:1;stop-color:#67bd30"
         offset="0.304067"
         id="stop896" />
      <stop
         style="stop-opacity:1;stop-color:#167947"
         offset="0.53985776"
         id="stop898" />
      <stop
         style="stop-opacity:1;stop-color:#167947"
         offset="0.804191"
         id="stop900" />
      <stop
         style="stop-opacity:1;stop-color:#167947"
         offset="1"
         id="stop902" />
    </linearGradient>
  </defs>
  <g
     id="g1373"
     transform="matrix(4.8534783,0,0,-4.8534783,-1131.3303,3347.6735)"
     style="display:inline">
    <path
       d="m 316.699,687.498 c -2.058,-1.926 -2.864,-4.696 -2.411,-7.333 v 0 c 5.351,-1.253 10.758,-2.039 16.432,0.376 v 0 c 0.158,2.254 -0.598,4.589 -2.291,6.397 v 0 c -1.688,1.805 -3.962,2.722 -6.216,2.722 v 0 c -1.99,0 -3.967,-0.714 -5.514,-2.162"
       style="fill:url(#linearGradient876);stroke:none"
       id="path878"
       clip-path="none" />
    <path
       d="m 288.506,678.007 c 7.529,2.743 14.168,0.743 20.387,-1.256 v 0 c 8.716,-2.801 16.606,-5.604 24.958,4.654 v 0 c -7.937,-5.234 -15.287,-3.41 -22.605,-1.586 v 0 c -3.721,0.927 -7.432,1.855 -11.208,1.855 v 0 c -3.757,0 -7.577,-0.918 -11.532,-3.667"
       style="fill:url(#linearGradient904);stroke:none"
       id="path906"
       clip-path="none" />
    <path
       id="path926"
       clip-path="none"
       style="display:inline;fill:#0b4223;fill-opacity:1;fill-rule:nonzero;stroke:none"
       transform="translate(326.2807,656.6929)"
       d="m 0,0 c 1.249,0 2.3,0.258 3.152,0.775 0.852,0.516 1.495,1.23 1.928,2.143 0.432,0.913 0.648,1.946 0.648,3.098 0,1.201 -0.216,2.252 -0.648,3.153 -0.433,0.9 -1.076,1.609 -1.928,2.125 C 2.3,11.811 1.249,12.069 0,12.069 c -1.225,0 -2.264,-0.258 -3.116,-0.775 C -3.97,10.778 -4.611,10.069 -5.044,9.169 -5.476,8.268 -5.693,7.217 -5.693,6.016 -5.693,4.864 -5.476,3.831 -5.044,2.918 -4.611,2.005 -3.97,1.291 -3.116,0.775 -2.264,0.258 -1.225,0 0,0 m 0,-3.206 c -2.138,0 -3.933,0.396 -5.386,1.189 -1.454,0.792 -2.553,1.885 -3.297,3.278 -0.745,1.393 -1.116,2.978 -1.116,4.755 0,1.778 0.371,3.363 1.116,4.756 0.744,1.392 1.843,2.492 3.297,3.296 1.453,0.805 3.248,1.208 5.386,1.208 2.138,0 3.938,-0.403 5.404,-1.208 1.465,-0.804 2.57,-1.904 3.314,-3.296 C 9.462,9.379 9.835,7.794 9.835,6.016 9.835,4.239 9.462,2.654 8.718,1.261 7.974,-0.132 6.869,-1.225 5.404,-2.017 3.938,-2.81 2.138,-3.206 0,-3.206 M -10.9378,7.2347 c 0,0.212 0,2.063 -0.971,3.914 -0.971,1.881 -2.883,4.127 -7.039,4.127 -3.156,0 -5.068,-1.305 -6.19,-2.731 -1.123,1.426 -3.035,2.731 -6.191,2.731 -4.156,0 -6.068,-2.246 -7.039,-4.127 -0.971,-1.851 -0.971,-3.702 -0.971,-3.914 v -8.695 c 0,-0.938 0.76,-1.697 1.697,-1.697 h 2.005 v 1.851 5.852 2.689 c 0,0.242 0.03,0.486 0.06,0.728 0.092,0.455 0.213,0.971 0.516,1.548 0.729,1.365 1.942,2.063 3.732,2.063 1.791,0 3.065,-0.668 3.733,-2.003 0.577,-1.123 0.607,-2.245 0.607,-2.336 v -8.69 c 0,-0.942 0.763,-1.704 1.703,-1.704 h 1.999 v 1.862 6.081 2.451 c 0,0.242 0.03,0.486 0.091,0.728 0.09,0.455 0.212,0.971 0.485,1.548 0.697,1.365 1.942,2.063 3.763,2.063 1.79,0 3.004,-0.668 3.702,-2.003 0.546,-1.092 0.637,-2.276 0.637,-2.336 v -2.689 -6.004 c 0,-0.93 0.754,-1.684 1.684,-1.684 h 1.987 l -0.002,1.837 c 0,0.003 0.002,0.005 0.002,0.008 z M -41.4807,1.9361 c -0.527,0.807 -1.852,1.893 -3.118,2.067 0.108,-0.205 0.244,-1.602 -0.274,-2.511 -0.554,-0.968 -1.749,-1.474 -1.996,-1.556 -0.98,-0.321 -1.937,-0.273 -2.552,-0.234 -1.06,0.066 -1.948,0.39 -2.631,0.91 -0.685,0.518 -1.015,1.238 -1.015,2.135 0,0.872 0.383,1.558 1.103,2.077 0.72,0.519 1.79,0.972 3.396,0.972 1.532,0 3.135,-0.409 3.982,-0.664 0.381,-0.114 0.965,-0.339 1.128,-0.412 2.146,-0.958 2.611,-2.075 2.627,-2.126 v 4.276 c 0,1.957 -0.042,3.327 -0.714,4.567 -0.672,1.239 -1.664,2.164 -2.974,2.78 -1.309,0.612 -2.908,1.027 -4.796,1.027 -1.039,0 -2.083,-0.106 -3.133,-0.318 -1.036,-0.211 -2.042,-0.474 -3.02,-0.935 -0.026,-0.013 -0.042,-0.039 -0.042,-0.066 v -0.649 c 0,-1.099 0.427,-2.127 2.3,-1.534 0.37,0.117 1.073,0.32 1.328,0.365 1.359,0.241 1.911,0.305 3.044,0.183 0.93,-0.099 1.545,-0.385 1.877,-0.532 0.814,-0.366 1.787,-1.058 2.2,-1.86 0.32,-0.624 0.517,-1.412 0.588,-2.365 -0.761,0.239 -1.555,0.432 -2.381,0.576 -0.873,0.153 -1.758,0.231 -2.655,0.231 -2.431,0 -4.128,-0.547 -5.508,-1.561 -1.381,-1.015 -2.071,-2.396 -2.071,-4.142 0,-1.181 0.32,-2.181 0.867,-3.062 1.359,-2.184 4.11,-2.834 5.769,-2.893 1.693,-0.061 4.671,0.138 6.22,2.032 0.018,-1.058 0.201,-1.874 1.587,-1.874 h 1.858 c 0.043,0 0.062,0.054 0.029,0.081 -0.135,0.109 -0.328,0.354 -0.371,0.873 -0.037,0.438 -0.024,0.925 -0.024,2.018 0,0.484 -0.075,0.965 -0.249,1.415 -0.091,0.236 -0.226,0.475 -0.379,0.709 M -67.0847,0 c 1.249,0 2.3,0.258 3.153,0.775 0.851,0.516 1.495,1.23 1.927,2.143 0.432,0.913 0.648,1.946 0.648,3.098 0,1.201 -0.216,2.252 -0.648,3.153 -0.432,0.9 -1.076,1.609 -1.927,2.125 -0.853,0.517 -1.904,0.775 -3.153,0.775 -1.225,0 -2.264,-0.258 -3.116,-0.775 -0.853,-0.516 -1.495,-1.225 -1.927,-2.125 -0.433,-0.901 -0.65,-1.952 -0.65,-3.153 0,-1.152 0.217,-2.185 0.65,-3.098 0.432,-0.913 1.074,-1.627 1.927,-2.143 0.852,-0.517 1.891,-0.775 3.116,-0.775 m 0,-3.206 c -2.138,0 -3.933,0.396 -5.386,1.189 -1.453,0.792 -2.552,1.885 -3.297,3.278 -0.745,1.393 -1.116,2.978 -1.116,4.755 0,1.778 0.371,3.363 1.116,4.756 0.745,1.392 1.844,2.492 3.297,3.296 1.453,0.805 3.248,1.208 5.386,1.208 2.138,0 3.939,-0.403 5.404,-1.208 1.465,-0.804 2.57,-1.904 3.314,-3.296 0.744,-1.393 1.117,-2.978 1.117,-4.756 0,-1.777 -0.373,-3.362 -1.117,-4.755 -0.744,-1.393 -1.849,-2.486 -3.314,-3.278 -1.465,-0.793 -3.266,-1.189 -5.404,-1.189 m -15.9762,-3e-4 c -2.09,0 -3.885,0.378 -5.386,1.135 -1.501,0.756 -2.666,1.824 -3.495,3.206 -0.828,1.381 -1.242,3.009 -1.242,4.882 0,1.873 0.414,3.5 1.242,4.881 0.829,1.381 1.982,2.456 3.459,3.225 1.477,0.768 3.212,1.153 5.206,1.153 1.032,0 2.049,-0.12 3.062,-0.288 1.126,-0.187 3.398,-0.98 3.821,-1.129 0.038,-0.013 0.057,-0.055 0.044,-0.094 l -0.678,-1.872 c -0.229,-0.654 -0.841,-0.931 -1.413,-0.746 -0.668,0.216 -1.134,0.373 -1.666,0.526 -0.857,0.246 -1.718,0.324 -2.558,0.324 -1.369,0 -2.534,-0.259 -3.494,-0.775 -0.961,-0.516 -1.688,-1.219 -2.18,-2.107 -0.492,-0.889 -0.738,-1.91 -0.738,-3.062 0,-1.13 0.246,-2.144 0.738,-3.044 0.492,-0.901 1.225,-1.616 2.198,-2.144 0.972,-0.528 2.155,-0.793 3.548,-0.793 0.985,0 1.922,0.12 2.81,0.36 0.48,0.13 0.485,0.142 0.978,0.285 0.842,0.243 1.236,0.119 1.759,-0.692 l 0.699,-1.141 c 0.02,-0.034 0.01,-0.078 -0.023,-0.099 l -0.783,-0.514 c -1.057,-0.601 -2.077,-0.997 -3.062,-1.189 -0.985,-0.191 -1.933,-0.288 -2.846,-0.288" />
  </g>
</svg>
